<svg width="32" height="29" viewBox="0 0 32 29" fill="none" xmlns="http://www.w3.org/2000/svg">
<path d="M16 11.2952C19.003 11.2952 21.4374 8.76666 21.4374 5.64759C21.4374 2.52851 19.003 0 16 0C12.9969 0 10.5625 2.52851 10.5625 5.64759C10.5625 8.76666 12.9969 11.2952 16 11.2952Z" fill="#2405F2"/>
<path d="M27 11.2973C28.8984 11.2973 30.4374 9.69852 30.4374 7.7263C30.4374 5.75408 28.8984 4.15527 27 4.15527C25.1015 4.15527 23.5625 5.75408 23.5625 7.7263C23.5625 9.69852 25.1015 11.2973 27 11.2973Z" fill="#2405F2"/>
<path d="M4.99997 11.2973C6.89843 11.2973 8.43744 9.69852 8.43744 7.7263C8.43744 5.75408 6.89843 4.15527 4.99997 4.15527C3.10151 4.15527 1.5625 5.75408 1.5625 7.7263C1.5625 9.69852 3.10151 11.2973 4.99997 11.2973Z" fill="#2405F2"/>
<path d="M8.3868 14.5008C7.03369 13.3494 5.80826 13.5018 4.24371 13.5018C1.90373 13.5018 0 15.4674 0 17.8829V24.9722C0 26.0213 0.824368 26.8742 1.83811 26.8742C6.21469 26.8742 5.68745 26.9565 5.68745 26.6782C5.68745 21.6547 5.11458 17.9707 8.3868 14.5008Z" fill="#2405F2"/>
<path d="M17.4882 13.5278C14.7555 13.291 12.3802 13.5305 10.3314 15.287C6.90288 18.1393 7.56268 21.9799 7.56268 26.6782C7.56268 27.9213 8.53642 28.9515 9.75141 28.9515C22.9439 28.9515 23.469 29.3935 24.2513 27.5942C24.5078 26.9856 24.4375 27.179 24.4375 21.3578C24.4375 16.7342 20.583 13.5278 17.4882 13.5278Z" fill="#2405F2"/>
<path d="M27.7564 13.5036C26.1833 13.5036 24.9646 13.3527 23.6133 14.5026C26.8611 17.9467 26.3126 21.3794 26.3126 26.68C26.3126 26.96 25.8749 26.876 30.0963 26.876C31.1463 26.876 32.0001 25.9925 32.0001 24.9065V17.8847C32.0001 15.4692 30.0963 13.5036 27.7564 13.5036Z" fill="#2405F2"/>
</svg>
