<svg width="29" height="35" viewBox="0 0 29 35" fill="none" xmlns="http://www.w3.org/2000/svg">
<path d="M20.866 5.9773C20.866 5.15601 20.5547 4.38284 19.9905 3.80195L17.1734 0.901429C16.6171 0.328532 15.8273 0 15.0413 0H14.8701V6.15357H20.8661L20.866 5.9773Z" fill="#2405F2"/>
<path d="M18.1911 21.1598C18.3818 20.5639 18.7145 20.0092 19.1483 19.5596L25.8927 12.6448V8.20312H18.8934C18.3429 8.20312 17.9297 7.7445 17.9297 7.17773V0H2.98828C1.34048 0 0 1.3799 0 3.07617V31.9238C0 33.6201 1.34048 35 2.98828 35H22.8778C24.5256 35 25.8927 33.6201 25.8927 31.9238V24.2709L24.798 25.3704C24.3545 25.823 23.8351 26.1525 23.2494 26.3538L20.0822 27.4423L19.5997 27.4693C18.802 27.4693 18.0472 27.0698 17.5783 26.4009C17.1134 25.735 16.9869 24.8718 17.2398 24.0918L18.1911 21.1598ZM4.98047 18.457H14.9091C15.4596 18.457 15.9052 18.9157 15.9052 19.4824C15.9052 20.0492 15.4596 20.5078 14.9091 20.5078H4.98047C4.42989 20.5078 3.98438 20.0492 3.98438 19.4824C3.98438 18.9157 4.42989 18.457 4.98047 18.457ZM3.98438 15.3809C3.98438 14.8141 4.42989 14.3555 4.98047 14.3555H14.9091C15.4596 14.3555 15.9052 14.8141 15.9052 15.3809C15.9052 15.9476 15.4596 16.4062 14.9091 16.4062H4.98047C4.42989 16.4062 3.98438 15.9476 3.98438 15.3809ZM3.98438 23.584C3.98438 23.0172 4.42989 22.5586 4.98047 22.5586H14.9091C15.4596 22.5586 15.9052 23.0172 15.9052 23.584C15.9052 24.1508 15.4596 24.6094 14.9091 24.6094H4.98047C4.42989 24.6094 3.98438 24.1508 3.98438 23.584ZM18.8934 28.7109C19.444 28.7109 19.8895 29.1696 19.8895 29.7363C19.8895 30.3031 19.4441 30.7617 18.8934 30.7617H12.9169C12.3663 30.7617 11.9208 30.3031 11.9208 29.7363C11.9208 29.1696 12.3663 28.7109 12.9169 28.7109H18.8934ZM4.98047 12.3047C4.42989 12.3047 3.98438 11.8461 3.98438 11.2793C3.98438 10.7125 4.42989 10.2539 4.98047 10.2539H18.8934C19.444 10.2539 19.8895 10.7125 19.8895 11.2793C19.8895 11.8461 19.444 12.3047 18.8934 12.3047H4.98047Z" fill="#2405F2"/>
<path d="M14.9956 22.0664L14.129 24.7433C13.9991 25.1443 14.3697 25.5257 14.7592 25.3918L17.3575 24.4983L14.9956 22.0664Z" fill="#2405F2"/>
<path d="M22.7321 13.624L16.1719 20.3772L19.0011 23.2896C20.4838 21.763 23.3689 18.7927 25.561 16.5361L22.7321 13.624Z" fill="#2405F2"/>
<path d="M28.4149 10.6832C28.0648 10.3206 27.5492 10.1133 27.0025 10.1133C26.4557 10.1133 25.9402 10.3206 25.5881 10.6842L24.1406 12.1745L26.9694 15.0871C27.7618 14.2711 28.3095 13.7072 28.417 13.5966C29.1951 12.7943 29.195 11.4874 28.4149 10.6832Z" fill="#2405F2"/>
</svg>
